<?xml version="1.0" encoding="UTF-8" standalone="no"?>
<svg
   xmlns:dc="http://purl.org/dc/elements/1.1/"
   xmlns:cc="http://creativecommons.org/ns#"
   xmlns:rdf="http://www.w3.org/1999/02/22-rdf-syntax-ns#"
   xmlns:svg="http://www.w3.org/2000/svg"
   xmlns="http://www.w3.org/2000/svg"
   id="svg2"
   xml:space="preserve"
   style="enable-background:new 0 0 91 91;"
   viewBox="0 0 91 113.75"
   y="0px"
   x="0px"
   version="1.1"><metadata
     id="metadata18"><rdf:RDF><cc:Work
         rdf:about=""><dc:format>image/svg+xml</dc:format><dc:type
           rdf:resource="http://purl.org/dc/dcmitype/StillImage" /><dc:title></dc:title></cc:Work></rdf:RDF></metadata><defs
     id="defs16" /><g
     id="g4"><path
       id="path6"
       d="M80.4,41.1h-7.4c0,0-0.1,0-0.1,0c-5.6,0.5-7.2,4.5-7.3,6.6v9.2c0,11.4-8.7,20.6-19.4,20.6c-10.7,0-19.4-9.2-19.4-20.6v-9.2   c0-0.5,0.1-2.8-1.5-4.6c-1.2-1.3-3-2-5.4-2H11c-0.7,0-1.2,0.6-1.2,1.2v40.6c0,0.7,0.6,1.2,1.2,1.2h69.4c0.7,0,1.2-0.6,1.2-1.2V42.3   C81.6,41.6,81.1,41.1,80.4,41.1z" /><path
       id="path8"
       d="M35.3,44.7l-2.1-0.9c-0.9-0.4-1.8,0-2.2,0.9c-0.4,0.9,0,1.8,0.9,2.2l3.5,1.5v5.5c0,0,0,0,0,0.1v6.2c0,0.4,0.1,0.8,0.4,1.1   l8.9,10.5c0.3,0.4,0.8,0.6,1.3,0.6c0,0,0,0,0,0c0.5,0,1-0.2,1.3-0.6l7.7-9.1c0.3-0.4,0.5-0.9,0.4-1.5s-0.5-0.9-0.9-1.2l-15.7-7.2   v-3l4.4,1.9l15.1,6.6c0.2,0.1,0.5,0.1,0.7,0.1c0.6,0,1.3-0.4,1.5-1c0.4-0.9,0-1.8-0.9-2.2l-2.8-1.2v-3.8c0-0.7-0.4-1.3-1-1.6   l-17-7.1v-3l15.6,6.5l3.8,1.7c0.2,0.1,0.5,0.1,0.7,0.1c0.6,0,1.3-0.4,1.5-1c0.4-0.9,0-1.8-0.9-2.2l-2.8-1.2v-3.7   c0-0.7-0.4-1.3-1-1.6l-17-7v-3.5l19.4,8.5c0.2,0.1,0.5,0.1,0.7,0.1c0.6,0,1.3-0.4,1.5-1c0.4-0.9,0-1.8-0.9-2.2L56.7,31v-4.2   c0-0.7-0.4-1.3-1-1.5l-17-7.3v-3l15.1,6.6l4.4,1.9c0.2,0.1,0.5,0.1,0.7,0.1c0.6,0,1.3-0.4,1.5-1c0.4-0.9,0-1.8-0.9-2.2l-2.8-1.2   v-3.2c0-0.7-0.4-1.3-1-1.6l-18-7.5c-0.5-0.2-1.1-0.2-1.6,0.2s-0.8,0.8-0.8,1.4v1.3l-2.1-0.9c-0.9-0.4-1.8,0-2.2,0.9   c-0.4,0.9,0,1.8,0.9,2.2l3.5,1.5V19v2.6l-2.1-0.9c-0.9-0.4-1.8,0-2.2,0.9c-0.4,0.9,0,1.8,0.9,2.2l3.5,1.5v6.1v1.7l-2.1-0.9   c-0.9-0.4-1.8,0-2.2,0.9c-0.4,0.9,0,1.8,0.9,2.2l3.5,1.5v6V44.7z" /></g><text
     style="font-weight:bold;font-size:5px;font-family:'Helvetica Neue', Helvetica, Arial-Unicode, Arial, Sans-serif;fill:#000000"
     id="text10"
     font-weight="bold"
     font-size="5px"
     y="106"
     x="0" />
<text
     style="font-weight:bold;font-size:5px;font-family:'Helvetica Neue', Helvetica, Arial-Unicode, Arial, Sans-serif;fill:#000000"
     id="text12"
     font-weight="bold"
     font-size="5px"
     y="111"
     x="0" />
</svg>